HIERARCHY
ROOT Hips
{
  OFFSET 0 0.240689 0
  CHANNELS 6 Xposition Yposition Zposition Zrotation Xrotation Yrotation
  JOINT Bip01_Spine0
  {
    OFFSET 0 -24.7459 49.7988
    CHANNELS 6 Xposition Yposition Zposition Zrotation Xrotation Yrotation
    JOINT Bip01_Pelvis
    {
      OFFSET 0 0 0
      CHANNELS 6 Xposition Yposition Zposition Zrotation Xrotation Yrotation
      JOINT Bip01_Spine0_Tail
      {
        OFFSET -6.47486 -3.86022 0
        CHANNELS 6 Xposition Yposition Zposition Zrotation Xrotation Yrotation
        JOINT Bip01_Spine0_Tail1
        {
          OFFSET 10.3837 -0.00825882 0
          CHANNELS 6 Xposition Yposition Zposition Zrotation Xrotation Yrotation
          JOINT Bip01_Spine0_Tail2
          {
            OFFSET 10.3837 -0.00826263 0
            CHANNELS 6 Xposition Yposition Zposition Zrotation Xrotation Yrotation
            JOINT Bip01_Spine0_Tail3
            {
              OFFSET 10.3837 -0.00825882 0
              CHANNELS 6 Xposition Yposition Zposition Zrotation Xrotation Yrotation
              JOINT Bip01_Spine0_Tail4
              {
                OFFSET 10.3837 -0.00826263 0
                CHANNELS 6 Xposition Yposition Zposition Zrotation Xrotation Yrotation
                End Site
                {
                  OFFSET 0 0 0
                }
              }
            }
          }
        }
      }
      JOINT Bip01_R_Thigh
      {
        OFFSET 0 -1.52588e-005 -8.75617
        CHANNELS 6 Xposition Yposition Zposition Zrotation Xrotation Yrotation
        JOINT Bip01_R_Calf
        {
          OFFSET 19.7638 0 0
          CHANNELS 6 Xposition Yposition Zposition Zrotation Xrotation Yrotation
          JOINT Bip01_R_Foot
          {
            OFFSET 18.6534 0 0
            CHANNELS 6 Xposition Yposition Zposition Zrotation Xrotation Yrotation
            JOINT Bip01_R_Toe0
            {
              OFFSET 5.09145 13.9567 0
              CHANNELS 6 Xposition Yposition Zposition Zrotation Xrotation Yrotation
              JOINT Bip01_R_Toe01
              {
                OFFSET 4.28803 0 0
                CHANNELS 6 Xposition Yposition Zposition Zrotation Xrotation Yrotation
                JOINT Bip01_R_Toe02
                {
                  OFFSET 3.85801 0 0
                  CHANNELS 6 Xposition Yposition Zposition Zrotation Xrotation Yrotation
                  End Site
                  {
                    OFFSET 0 0 0
                  }
                }
              }
            }
          }
        }
      }
      JOINT Bip01_L_Thigh
      {
        OFFSET 0 1.52588e-005 8.75617
        CHANNELS 6 Xposition Yposition Zposition Zrotation Xrotation Yrotation
        JOINT Bip01_L_Calf
        {
          OFFSET 19.7638 0 0
          CHANNELS 6 Xposition Yposition Zposition Zrotation Xrotation Yrotation
          JOINT Bip01_L_Foot
          {
            OFFSET 18.6534 0 0
            CHANNELS 6 Xposition Yposition Zposition Zrotation Xrotation Yrotation
            JOINT Bip01_L_Toe0
            {
              OFFSET 5.09144 13.9567 0
              CHANNELS 6 Xposition Yposition Zposition Zrotation Xrotation Yrotation
              JOINT Bip01_L_Toe01
              {
                OFFSET 4.28802 0 0
                CHANNELS 6 Xposition Yposition Zposition Zrotation Xrotation Yrotation
                JOINT Bip01_L_Toe02
                {
                  OFFSET 3.85801 0 0
                  CHANNELS 6 Xposition Yposition Zposition Zrotation Xrotation Yrotation
                  End Site
                  {
                    OFFSET 0 0 0
                  }
                }
              }
            }
          }
        }
      }
      JOINT Bip01_Spine
      {
        OFFSET 9.14835 -0.00640869 -1.1e-005
        CHANNELS 6 Xposition Yposition Zposition Zrotation Xrotation Yrotation
        JOINT Bip01_Spine1
        {
          OFFSET 8.04366 -0.00638199 0
          CHANNELS 6 Xposition Yposition Zposition Zrotation Xrotation Yrotation
          JOINT Bip01_Spine2
          {
            OFFSET 8.04367 -0.00639343 0
            CHANNELS 6 Xposition Yposition Zposition Zrotation Xrotation Yrotation
            JOINT Bip01_Spine3
            {
              OFFSET 8.04304 -0.00831222 0
              CHANNELS 6 Xposition Yposition Zposition Zrotation Xrotation Yrotation
              JOINT Bip01_Neck
              {
                OFFSET 10.6685 1.06813 0
                CHANNELS 6 Xposition Yposition Zposition Zrotation Xrotation Yrotation
                JOINT Bip01_R_Clavicle
                {
                  OFFSET -3.21661 -4.89635 -9.04802
                  CHANNELS 6 Xposition Yposition Zposition Zrotation Xrotation Yrotation
                  JOINT Bip01_R_UpperArm
                  {
                    OFFSET 19.0492 0 0
                    CHANNELS 6 Xposition Yposition Zposition Zrotation Xrotation Yrotation
                    JOINT Bip01_R_Forearm
                    {
                      OFFSET 10.3706 0 0
                      CHANNELS 6 Xposition Yposition Zposition Zrotation Xrotation Yrotation
                      JOINT Bip01_R_Hand
                      {
                        OFFSET 22.8632 0 0
                        CHANNELS 6 Xposition Yposition Zposition Zrotation Xrotation Yrotation
                        JOINT Bip01_R_Finger0
                        {
                          OFFSET 6.48259 0.103651 0.504496
                          CHANNELS 6 Xposition Yposition Zposition Zrotation Xrotation Yrotation
                          JOINT Bip01_R_Finger01
                          {
                            OFFSET 3.66847 0 0
                            CHANNELS 6 Xposition Yposition Zposition Zrotation Xrotation Yrotation
                            End Site
                            {
                              OFFSET 0 0 0
                            }
                          }
                        }
                      }
                    }
                  }
                }
                JOINT Bip01_L_Clavicle
                {
                  OFFSET -3.21661 -4.89641 9.04797
                  CHANNELS 6 Xposition Yposition Zposition Zrotation Xrotation Yrotation
                  JOINT Bip01_L_UpperArm
                  {
                    OFFSET 19.0492 0 0
                    CHANNELS 6 Xposition Yposition Zposition Zrotation Xrotation Yrotation
                    JOINT Bip01_L_Forearm
                    {
                      OFFSET 10.3706 0 0
                      CHANNELS 6 Xposition Yposition Zposition Zrotation Xrotation Yrotation
                      JOINT Bip01_L_Hand
                      {
                        OFFSET 22.8631 0 0
                        CHANNELS 6 Xposition Yposition Zposition Zrotation Xrotation Yrotation
                        JOINT Bip01_L_Finger0
                        {
                          OFFSET 6.48257 0.103655 -0.504492
                          CHANNELS 6 Xposition Yposition Zposition Zrotation Xrotation Yrotation
                          JOINT Bip01_L_Finger01
                          {
                            OFFSET 3.66844 0 0
                            CHANNELS 6 Xposition Yposition Zposition Zrotation Xrotation Yrotation
                            End Site
                            {
                              OFFSET 0 0 0
                            }
                          }
                        }
                      }
                    }
                  }
                }
                JOINT Bip01_Neck1
                {
                  OFFSET 7.52459 -0.00656509 0
                  CHANNELS 6 Xposition Yposition Zposition Zrotation Xrotation Yrotation
                  JOINT Bip01_Neck2
                  {
                    OFFSET 8.4783 -0.00588226 0
                    CHANNELS 6 Xposition Yposition Zposition Zrotation Xrotation Yrotation
                    JOINT Bip01_Head
                    {
                      OFFSET 8.41606 0 0
                      CHANNELS 6 Xposition Yposition Zposition Zrotation Xrotation Yrotation
                      JOINT EyesBlue
                      {
                        OFFSET 0 0 0
                        CHANNELS 6 Xposition Yposition Zposition Zrotation Xrotation Yrotation
                        JOINT EyesBlue_2
                        {
                          OFFSET 0 -0.500007 0
                          CHANNELS 6 Xposition Yposition Zposition Zrotation Xrotation Yrotation
                          End Site
                          {
                            OFFSET 0 0 0
                          }
                        }
                      }
                      JOINT Bip01_Head2_Eyeleds
                      {
                        OFFSET 6.52751 7.61746 2.2e-005
                        CHANNELS 6 Xposition Yposition Zposition Zrotation Xrotation Yrotation
                        End Site
                        {
                          OFFSET 0 0 0
                        }
                      }
                      JOINT Bip01_Head_Muzzle
                      {
                        OFFSET 2.88628 13.9448 3.88994
                        CHANNELS 6 Xposition Yposition Zposition Zrotation Xrotation Yrotation
                        End Site
                        {
                          OFFSET 0 0 0
                        }
                      }
                      JOINT Bip01_Head1_Jaw
                      {
                        OFFSET 0.271065 1.32405 0
                        CHANNELS 6 Xposition Yposition Zposition Zrotation Xrotation Yrotation
                        JOINT _Bip01_Head11_TungeControler
                        {
                          OFFSET 4.61616 5.82872 0
                          CHANNELS 6 Xposition Yposition Zposition Zrotation Xrotation Yrotation
                          JOINT _Bip01_Ponytail3_tunge
                          {
                            OFFSET 5.17785 2.98805 0
                            CHANNELS 6 Xposition Yposition Zposition Zrotation Xrotation Yrotation
                            JOINT Bip01_Ponytail31
                            {
                              OFFSET 5.57569 0 0
                              CHANNELS 6 Xposition Yposition Zposition Zrotation Xrotation Yrotation
                              JOINT Bip01_Ponytail32
                              {
                                OFFSET 2.93165 0 0
                                CHANNELS 6 Xposition Yposition Zposition Zrotation Xrotation Yrotation
                                JOINT Bip01_Ponytail3Nub
                                {
                                  OFFSET 3.30155 0 0
                                  CHANNELS 6 Xposition Yposition Zposition Zrotation Xrotation Yrotation
                                  End Site
                                  {
                                    OFFSET 0 0 0
                                  }
                                }
                              }
                            }
                          }
                        }
                        JOINT Bip01_Head_JawNub
                        {
                          OFFSET 15.5776 -0.000389099 0
                          CHANNELS 6 Xposition Yposition Zposition Zrotation Xrotation Yrotation
                          End Site
                          {
                            OFFSET 0 0 0
                          }
                        }
                      }
                      JOINT Bip01_Ponytail2
                      {
                        OFFSET 9.40334 1.03973 -6.51764
                        CHANNELS 6 Xposition Yposition Zposition Zrotation Xrotation Yrotation
                        JOINT Bip01_Ponytail21
                        {
                          OFFSET 2.77018 -0.00640106 1.33514e-005
                          CHANNELS 6 Xposition Yposition Zposition Zrotation Xrotation Yrotation
                          End Site
                          {
                            OFFSET 0 0 0
                          }
                        }
                      }
                      JOINT Bip01_Ponytail1
                      {
                        OFFSET 9.40368 1.03969 6.51768
                        CHANNELS 6 Xposition Yposition Zposition Zrotation Xrotation Yrotation
                        JOINT Bip01_Ponytail11
                        {
                          OFFSET 2.77018 -0.00640487 0
                          CHANNELS 6 Xposition Yposition Zposition Zrotation Xrotation Yrotation
                          End Site
                          {
                            OFFSET 0 0 0
                          }
                        }
                      }
                    }
                  }
                }
              }
            }
          }
        }
      }
    }
  }
}
MOTION
Frames:	4
Frame Time:	0.0333333
0 0 0.240689 -0 -90 -0 0.209979 -28.7019 49.6135 90.0019 0.0621571 86.1347 0 0 0 -90.0004 -5.20465e-005 -86.8964 -6.46482 -3.86079 -0.3506 136.844 -1.99341 -10.3474 10.3791 -0.007095 3.50001e-005 -14.1258 -0.21116 -5.8694 10.3833 -0.008132 0.000116 16.782 1.58026 -3.42471 10.3851 -0.007953 0.000137001 38.0582 -1.73251 8.27537 10.3846 -0.007999 9.50027e-005 34.2865 -4.17592 5.58224 7e-006 -1.5e-005 -8.75617 -113.486 1.75577 -176.351 19.7638 -3e-006 1e-006 -102.588 -0.000317292 0.00300315 18.6534 0 -5.32907e-015 -11.1693 2.35824 4.91948 5.09143 13.9567 -4.13367e-006 79.5565 3.30866 -3.81916 4.288 -5e-006 3e-006 14.8518 0.000698407 0.00135 3.85799 -1e-006 -1e-006 -13.3626 -2.34519e-006 9.82124e-006 -1.7e-005 7.00001e-006 8.75617 -117.447 6.03393 176.913 19.7638 -7.10543e-015 -1.33227e-015 -75.8927 0.000379488 0.00312634 18.6534 3e-006 -3.55271e-015 -25.9901 -6.15218 -2.57437 5.09143 13.9567 9.07928e-007 107.115 -1.0454 4.76956 4.288 -1e-006 1e-006 56.5148 0.00221386 0.000843245 3.85799 1.19904e-014 -3.55271e-015 -34.5668 0.000916827 0.00142637 9.13536 -0.006317 0.495419 8.54392 -0.203846 -1.36322 8.04366 -0.006282 0.000103001 3.95569 -0.22814 -1.60875 8.04367 -0.006401 2.7762e-011 5.29693 -0.0677015 -1.20194 8.04299 -0.008228 6.99972e-006 16.2834 -0.439714 -1.02459 10.67 1.06797 1.02855e-006 -0.550411 -0.0542821 -0.913668 -4.45462 -4.03827 -8.94649 162.766 -85.2997 96.3721 19.0492 1.77636e-014 -3e-006 67.6145 -18.9764 -101.019 10.3706 1e-006 1e-006 -119.598 0.000392505 -0.00147948 22.8631 -1.77636e-015 6.21724e-015 0.0459014 11.8675 8.12757 6.48256 0.103651 0.504495 -76.6945 -0.747378 -15.4789 3.66844 1.52722e-012 2e-006 16.9618 -2.97837e-006 4.51668e-005 -4.00585 -4.0672 9.14322 -162.86 85.1062 -153.505 19.0492 -5.68434e-014 -3e-006 82.4068 -21.762 106.017 10.3706 1.42109e-014 -6.66133e-016 -118.863 0.000607268 -0.00241588 22.8631 2.13163e-014 -9.99999e-007 27.776 -9.42734 -4.43432 6.48256 0.103653 -0.504496 7.86201 15.4844 0.732439 3.66844 2e-006 1.42108e-014 30.895 8.84647e-006 -5.22906e-006 7.52562 -0.006721 -2.98202e-010 19.4653 4.4176 8.42168 8.47686 -0.00645 6.67227e-010 25.5336 -2.53705 -5.57782 8.41606 3e-006 -9.61453e-014 -87.1616 0.41506 -4.45148 -3e-006 3e-006 -3e-006 -23.1098 1.37701e-015 90 -1.00368e-008 -0.499996 -3.65726e-006 180 90 -90 0 0 0 -113.549 -7.01671e-015 -180 2.8863 13.9448 3.88993 -22.9892 1.37021e-015 90 0 0 0 -89.3358 -3.24611e-014 -180 0 0 0 -120.289 2.09046e-006 -1.99521e-005 0 0 0 133.74 -1.80934e-005 6.21227e-006 0 0 0 1.83152 -1.11741e-008 -2.85064e-009 0 0 0 -17.65 4.86152e-008 3.04177e-008 0 0 0 -26.1943 -8.16083e-008 2.07395e-008 15.5776 -0.000396 -7e-006 2.75869e-033 -3.97569e-016 3.97569e-016 9.40334 1.03971 -6.51764 -6.12101 -20.3624 19.2938 2.77017 -0.006393 -1.00348e-006 2.27025 -18.4997 -0.511988 9.40368 1.03968 6.51767 -6.12111 20.3624 -19.2938 2.77018 -0.006404 -9.97234e-007 2.27028 18.4997 0.511971 
0 0 0.240689 -0 -90 -0 0.073999 -28.7019 49.6448 90.0016 0.109913 87.414 0 0 0 -90.0001 -3.54479e-005 -88.336 -6.47136 -3.86079 -0.187952 135.722 -1.0494 -10.576 10.3791 -0.007095 3.50001e-005 -15.0436 -0.112838 -7.52517 10.3833 -0.008132 0.000116 19.5535 1.4391 -4.83353 10.3851 -0.007953 0.000137001 39.9908 -2.0852 7.69648 10.3846 -0.007999 9.50047e-005 35.5823 -5.19947 5.68069 7e-006 -1.5e-005 -8.75617 -121.616 0.19458 -177.043 19.7638 -3e-006 1e-006 -103.879 -0.000358242 0.00300179 18.6534 0 4.44089e-015 1.58747 3.7251 3.96645 5.09143 13.9567 -5.59093e-007 71.8011 3.75351 -3.37353 4.288 -5e-006 3e-006 4.50392 0.000444553 0.00145356 3.85799 -1e-006 -1e-006 -14.3912 -2.44321e-006 9.74887e-006 -1.7e-005 7.00001e-006 8.75617 -116.138 4.79344 176.244 19.7638 -5.32907e-015 -1.77636e-015 -75.3334 0.000394818 0.00312648 18.6534 3e-006 -1.77636e-015 -28.0196 -5.63853 -2.75652 5.09143 13.9567 1.26857e-006 108.937 -1.08372 4.7348 4.288 -1e-006 1e-006 57.8047 0.00222726 0.000793471 3.85799 -1.70974e-014 5.32907e-015 -31.8803 0.000986854 0.00138447 9.14484 -0.006317 0.265634 8.54441 -0.17402 -1.16514 8.04366 -0.006282 0.000103 3.19419 -0.106982 -0.448003 8.04367 -0.006401 5.16315e-012 5.05644 -0.0391186 -0.590142 8.04299 -0.008228 6.99987e-006 15.83 -0.137898 -0.281189 10.67 1.06797 1.01113e-006 -0.148355 -0.134 -1.97066 -4.65508 -3.9934 -8.8641 150.178 -84.9295 81.7052 19.0492 3.55272e-015 -3e-006 67.9978 -20.1978 -98.5884 10.3706 1e-006 1e-006 -118.612 0.000378501 -0.00148302 22.8631 -8.77076e-015 7.54951e-015 -2.28359 13.2903 7.50279 6.48256 0.103651 0.504495 -75.4241 -1.09967 -15.458 3.66844 1.18838e-012 2e-006 13.1466 4.66407e-006 4.14624e-005 -3.85972 -4.04991 9.21351 -152.307 84.6128 -162.296 19.0492 -6.39489e-014 -3e-006 82.5934 -28.0553 106.644 10.3706 1.77636e-015 -3.77476e-015 -112.799 0.000468676 -0.00241826 22.8631 -1.42109e-014 -9.99999e-007 23.8737 -8.14996 -7.02788 6.48256 0.103653 -0.504496 -8.97552 14.6446 5.13834 3.66844 2e-006 4.44089e-015 31.9616 1.01507e-005 -2.30603e-006 7.52562 -0.006721 -3.04881e-010 19.8445 4.46131 8.36365 8.47686 -0.00645 6.27882e-010 25.996 -2.58933 -5.58887 8.41606 3e-006 -8.14904e-014 -85.3076 0.193094 -4.75889 -3e-006 3e-006 -3e-006 -23.1098 1.37701e-015 90 -1.33697e-008 -0.499996 -3.66013e-006 -180 90 -90 0 0 0 -113.549 -3.24611e-014 -180 2.8863 13.9448 3.88993 -22.9892 1.37021e-015 90 0 0 0 -89.3358 -5.79056e-014 -180 0 0 0 -120.289 2.22463e-006 -1.96736e-005 0 0 0 133.74 -1.82144e-005 6.42672e-006 0 0 0 1.83152 -1.27247e-008 -1.32774e-008 0 0 0 -17.65 3.78733e-008 1.29753e-007 0 0 0 -26.1943 -1.43401e-007 1.63291e-007 15.5776 -0.000396 -7e-006 0 0 -4.96962e-017 9.40334 1.03971 -6.51764 -6.09278 -20.3335 19.3751 2.77017 -0.006393 -1.0034e-006 2.27025 -18.4997 -0.511988 9.40368 1.03968 6.51767 -6.09292 20.3334 -19.3751 2.77018 -0.006404 -9.97283e-007 2.27028 18.4997 0.511971 
0 0 0.240689 -0 -90 -0 -0.056842 -28.7019 49.5456 90.0012 0.0677814 88.4983 0 0 0 -89.9997 -2.73763e-005 -89.7751 -6.47391 -3.86079 -0.0253659 135.113 -0.115947 -10.4872 10.3791 -0.007095 3.50001e-005 -15.5412 -0.0356764 -8.61626 10.3833 -0.008132 0.000116 21.0698 1.26543 -5.92929 10.3851 -0.007953 0.000137001 41.055 -2.30435 6.69405 10.3846 -0.007999 9.50048e-005 36.2569 -5.30104 5.23539 7e-006 -1.5e-005 -8.75617 -129.044 -1.33534 -177.825 19.7638 -3e-006 1e-006 -102.551 -0.000315135 0.00300335 18.6534 -1.42109e-014 0 15.4442 5.06629 2.20532 5.09143 13.9567 -7.00409e-008 61.1672 4.26047 -2.67768 4.288 -5e-006 3e-006 -9.68927 7.45517e-005 0.0015182 3.85799 -1e-006 -1e-006 -16.899 -2.76146e-006 9.58244e-006 -1.7e-005 7e-006 8.75617 -114.855 3.48236 175.678 19.7638 -7.10543e-015 -6.21725e-015 -74.874 0.000406746 0.00312678 18.6534 3e-006 1.33227e-014 -29.9059 -5.21531 -2.90821 5.09143 13.9567 1.86369e-006 110.661 -1.12062 4.70227 4.288 -1e-006 1e-006 59.0261 0.00223766 0.000745961 3.85799 -5.10703e-015 0 -29.3385 0.00105229 0.00134226 9.14851 -0.006317 0.035912 8.54483 -0.143638 -0.959487 8.04366 -0.006282 0.000103 2.55265 -0.000194595 0.706299 8.04367 -0.006401 -1.10392e-011 4.82313 -0.0110499 0.069132 8.04299 -0.008228 7e-006 15.3853 0.152995 0.460331 10.67 1.06797 9.93913e-007 0.264524 -0.224032 -3.04876 -4.84878 -3.94794 -8.7802 139.94 -84.3708 69.6743 19.0492 -1.06581e-014 -3e-006 68.4225 -21.383 -96.3392 10.3706 1e-006 9.99999e-007 -117.619 0.000365267 -0.00148517 22.8631 7.10543e-015 -3.9968e-015 -4.36259 14.5058 6.92559 6.48256 0.103651 0.504495 -73.2462 -1.70099 -15.4054 3.66844 8.5576e-013 2e-006 9.86276 1.07933e-005 3.9029e-005 -3.71614 -4.03416 9.27925 -143.988 83.9845 -167.762 19.0492 -8.34888e-014 -3e-006 81.9861 -35.5836 106.163 10.3706 -7.10543e-015 -1.77636e-015 -106.14 0.00032492 -0.00241903 22.8631 -6.03962e-014 -9.99999e-007 18.9095 -6.90355 -10.4664 6.48256 0.103653 -0.504496 -27.3063 12.3431 9.45136 3.66844 2e-006 -7.59392e-014 33.0039 6.00429e-006 -4.26883e-006 7.52562 -0.006721 -3.15053e-010 20.2347 4.50632 8.33619 8.47686 -0.00645 5.91867e-010 26.4739 -2.64288 -5.56718 8.41606 3e-006 -7.41629e-014 -83.6358 -0.0624356 -5.02545 -3e-006 3e-006 -3e-006 -23.1098 1.37701e-015 90 -1.60474e-008 -0.499996 -3.66228e-006 -180 90 -90 0 0 0 -113.549 -5.79056e-014 -180 2.8863 13.9448 3.88993 -22.9892 1.37021e-015 90 0 0 0 -89.3358 -8.335e-014 -180 0 0 0 -120.289 2.31108e-006 -1.94183e-005 0 0 0 133.74 -1.83451e-005 6.59695e-006 0 0 0 1.83152 -1.31997e-008 -2.26613e-008 0 0 0 -17.65 2.09818e-008 2.18874e-007 0 0 0 -26.1943 -2.09671e-007 2.94387e-007 15.5776 -0.000396 -7e-006 -1.72418e-033 3.97569e-016 2.48481e-016 9.40334 1.03971 -6.51764 -5.99623 -20.2337 19.6537 2.77017 -0.006393 -1.00322e-006 2.27025 -18.4997 -0.511988 9.40368 1.03968 6.51767 -5.99638 20.2337 -19.6536 2.77018 -0.006404 -9.97382e-007 2.27028 18.4997 0.511971 
0 0 0.240689 -0 -90 -0 -0.185633 -28.7019 49.3801 90.0009 0.0177061 89.0648 0 0 0 -89.9998 -3.35587e-005 -91.2117 -6.47249 -3.86079 0.136967 135.066 0.775267 -9.98531 10.3791 -0.007095 3.50001e-005 -15.5773 0.00115284 -9.14383 10.3833 -0.008132 0.000116 21.189 1.1008 -6.77129 10.3851 -0.007953 0.000137001 41.1604 -2.35732 5.07325 10.3846 -0.007999 9.50042e-005 36.2747 -4.27587 4.06196 7e-006 -1.5e-005 -8.75617 -134.34 -2.66666 -178.698 19.7638 -3e-006 1e-006 -99.3356 -0.000227055 0.00300301 18.6534 7.10543e-015 8.88178e-016 25.6248 5.71897 0.316778 5.09143 13.9567 7.3059e-008 53.7056 4.53719 -2.1402 4.288 -5e-006 3e-006 -19.6349 -0.00018883 0.00150818 3.85799 -1e-006 -1e-006 -19.417 -3.30063e-006 9.3883e-006 -1.7e-005 6.99998e-006 8.75617 -113.118 2.08107 175.194 19.7638 -3.55271e-015 -2.66453e-015 -74.4543 0.000418854 0.00312671 18.6534 3e-006 8.88178e-015 -31.9701 -4.73427 -3.11447 5.09143 13.9567 3.01063e-006 112.257 -1.15522 4.67384 4.288 -1e-006 1e-006 60.1571 0.00224399 0.000701643 3.85799 5.77316e-015 -1.77636e-015 -26.9874 0.00111309 0.00130155 9.14647 -0.006317 -0.193456 8.5453 -0.103892 -0.693384 8.04366 -0.006282 0.000103 2.23679 0.0977736 1.80012 8.04367 -0.006401 -2.34487e-011 4.75788 0.0162483 0.724554 8.04299 -0.008228 7.00011e-006 15.0015 0.419904 1.1662 10.67 1.06797 9.77704e-007 0.681953 -0.323431 -4.13335 -5.03932 -3.90118 -8.69339 131.754 -83.6797 59.4028 19.0492 -2.66454e-014 -3e-006 69.4529 -20.7024 -93.5819 10.3706 1e-006 9.99999e-007 -115.586 0.00033663 -0.00148726 22.8631 1.77636e-015 -1.55431e-014 -6.00181 16.0954 6.17178 6.48256 0.103651 0.504495 -72.3116 -1.95262 -15.3542 3.66843 7.17204e-013 2e-006 6.02121 1.36395e-005 3.79194e-005 -3.57268 -4.0194 9.34183 -137.444 83.2546 -171.163 19.0492 -9.23706e-014 -3e-006 81.0267 -44.9938 104.994 10.3706 0 3.9968e-015 -98.4592 0.000167302 -0.0024192 22.8631 -9.9476e-014 -9.99999e-007 13.5428 -5.26214 -14.1016 6.48256 0.103653 -0.504496 -46.4042 8.58823 12.9537 3.66844 2e-006 -3.48166e-012 34.1356 -7.44521e-005 5.0491e-005 7.52562 -0.006721 -3.33118e-010 20.6305 4.55226 8.33576 8.47686 -0.00645 5.56867e-010 26.9601 -2.69659 -5.51696 8.41606 3e-006 -6.63913e-014 -82.5536 -0.354486 -5.19882 -3e-006 3e-006 -3e-006 -23.1098 1.37701e-015 90 -1.78164e-008 -0.499996 -3.66376e-006 -180 90 -90 0 0 0 -113.549 -3.24611e-014 -180 2.8863 13.9448 3.88993 -22.9892 1.37021e-015 90 0 0 0 -89.3358 -3.24611e-014 -180 0 0 0 -120.289 2.38456e-006 -1.92042e-005 0 0 0 133.74 -1.84509e-005 6.74037e-006 0 0 0 1.83152 -1.31274e-008 -3.04275e-008 0 0 0 -17.65 2.91812e-009 2.92491e-007 0 0 0 -26.1943 -2.72354e-007 4.0449e-007 15.5776 -0.000396 -7.00001e-006 7.95139e-016 3.97569e-016 -1.98785e-016 9.40334 1.03971 -6.51764 -5.80806 -20.0364 20.2004 2.77017 -0.006393 -1.00293e-006 2.27027 -18.4997 -0.511979 9.40368 1.03968 6.51767 -5.8082 20.0364 -20.2003 2.77018 -0.006404 -9.97535e-007 2.27028 18.4997 0.511971 
